<svg xmlns="http://www.w3.org/2000/svg" xmlns:xlink="http://www.w3.org/1999/xlink" width="234.158" height="99.907" viewBox="0 0 234.158 99.907">
  <defs>
    <clipPath id="clip-path">
      <path id="Path_60" data-name="Path 60" d="M431.14,98.045a.644.644,0,0,1,.614-.219.749.749,0,0,1,.57.307l5.962,7.409-1.227.964-5.436-6.751c-2.323,2.192-10.521,9.337-19.026,9.337H412.2l.044-1.578h.307c9.162.044,18.5-9.381,18.587-9.469M419.7,99.536c3.507-9.6.57-13.853-2.674-17.316-4.734-5.085-5.129-9.337-4.647-11.968a8.231,8.231,0,0,1,3.989-5.83l.658,1.4a6.833,6.833,0,0,0-3.113,4.735c-.438,2.323-.044,6.05,4.252,10.609,3.463,3.682,6.839,8.5,3.025,18.938Zm12.888-15.168c-1.447-5.567-.921-12.669,3.419-16.878l-1.929-6.839,1.491-.438,2.06,7.277a.737.737,0,0,1-.219.789c-4.34,3.9-4.691,11-3.112,16.352a.769.769,0,0,1-.482.964l-4.734,1.666a.556.556,0,0,1-.263.044.659.659,0,0,1-.482-.175l-3.419-2.63a.834.834,0,0,1-.307-.482l-.088-.395c-.833-5-.964-5.83-.263-8.636-1.622-.614-5.524-2.455-6.444-5.787-.614-2.28.307-4.778,2.718-7.365l1.14,1.052c-2.017,2.148-2.806,4.121-2.323,5.874.877,3.332,6.05,4.954,6.093,4.954a.775.775,0,0,1,.526.964c-.833,3.069-.745,3.376.132,8.68v.088l2.849,2.192Zm6.62-13.809c1.184-5.436.7-7.759-2.017-9.469l.833-1.315c3.77,2.411,3.814,5.874,2.718,11.135ZM399.708,55.7c7.365-6.225,17.185-7.146,26.215-2.455,7.014,3.639,10,3.156,11.179,2.543a2.294,2.294,0,0,0,1.227-1.929l1.578.175a3.917,3.917,0,0,1-2.06,3.156c-2.5,1.359-6.883.482-12.625-2.543-8.461-4.384-17.623-3.551-24.462,2.236-7.584,6.444-10.214,16.921-6.795,27.355l-1.49.482c-3.639-11.047-.877-22.182,7.233-29.021m-12.538,3.77A24.708,24.708,0,0,1,400.8,45.484c4.647-1.929,12.231-3.288,21.875,1.14l-.658,1.447c-7.233-3.332-14.335-3.682-20.6-1.1a23.409,23.409,0,0,0-12.757,13.108ZM370.995,69.9a6.156,6.156,0,0,0,2.674,1.1c2.586.395,5.874-.789,7.452-5.173a23.8,23.8,0,0,0,.745-4.735c.482-5,1.14-11.88,6.444-14.247l.658,1.447c-4.471,2.017-5.041,8.11-5.524,12.976a22.24,22.24,0,0,1-.833,5.085c-1.666,4.647-5.173,6.269-8.066,6.269a9.23,9.23,0,0,1-1.1-.088,7.888,7.888,0,0,1-2.543-.833c-.175,3.332-.307,7.014-.307,11.135a48.233,48.233,0,0,0,8.943-.658c8.329-1.4,8.154-4.822,7.891-9.118a14.562,14.562,0,0,1,.57-6.4l1.447.57a13.312,13.312,0,0,0-.438,5.743c.263,4.471.526,9.118-9.206,10.784a50.945,50.945,0,0,1-9.206.658c0,5.962.175,12.8.526,20.692,1.929,2.017,9.776,8.768,25.295,6.225,14.16-2.323,21.919-12.275,21.218-20.56-.57-6.576-6.313-10.653-15.08-10.653h-.175V78.537c11.661-.044,16.308,6.225,16.79,12.1.745,8.987-7.452,19.771-22.533,22.226a46.046,46.046,0,0,1-7.014.614c-9.82,0-15.694-3.726-18.412-6.093.132,3.156.351,6.444.526,9.951h.57c1.841-3.244,1.052-5.48,1.052-5.524l1.447-.57c.088.175.964,2.63-.7,6.093h33.361a10.1,10.1,0,0,0-3.77-2.367c-.526-.219-.833-.307-1.008-.614l1.315-.877a.756.756,0,0,1-.132-.175c.088.044.219.088.438.175a12.8,12.8,0,0,1,5.3,3.814h3.989a58.264,58.264,0,0,1-2.455-6.357l1.491-.438a59.735,59.735,0,0,0,2.674,6.795h30.248c.175-2.893.307-5.655.438-8.329a49.786,49.786,0,0,0-8.11-10.39l-.7-.7c-2.806-2.849-3.858-3.945-9.82-.745l-4.033,2.192-.745-1.359,4.033-2.192c6.707-3.595,8.5-2.236,11.661,1.008l.7.7a55.888,55.888,0,0,1,7.146,8.636C449.64,30.929,437.541,48.9,408.608,19.4c-22.84,23.322-35.2,16.965-37.613,50.5" transform="translate(-370.6 -19.4)"/>
    </clipPath>
    <clipPath id="clip-path-2">
      <path id="Path_62" data-name="Path 62" d="M480.444,47.544h0L480.4,47.5Z" transform="translate(-480.4 -47.5)"/>
    </clipPath>
    <clipPath id="clip-path-3">
      <path id="Path_64" data-name="Path 64" d="M528.4,93.1l.658.088.175-.044c-.044-.044-.044-.132-.088-.175l-.482.132.351-.482c-.044-.088-.044-.132-.088-.219Z" transform="translate(-528.4 -92.4)" opacity="0.12"/>
    </clipPath>
    <linearGradient id="linear-gradient" x1="-729.17" y1="-426.418" x2="-728.218" y2="-426.418" gradientUnits="objectBoundingBox">
      <stop offset="0" stop-color="#f0cb4f"/>
      <stop offset="0.263" stop-color="#ecc044"/>
      <stop offset="0.608" stop-color="#e8b83b"/>
      <stop offset="1" stop-color="#e7b538"/>
    </linearGradient>
  </defs>
  <g id="شعار_بوابة_الخيل0-03" data-name="شعار بوابة الخيل0-03" transform="translate(-10.1 -19.4)">
    <g id="Group_11" data-name="Group 11" transform="translate(10.1 87.568)">
      <path id="Path_33" data-name="Path 33" d="M19.174,226.1l-1.885,5.874h-.044L15.1,226.1h-.482l-2.1,5.83h-.044l-1.885-5.83H10.1l2.148,6.532h.482l2.1-5.874h.044l2.148,5.874h.482l2.1-6.532Z" transform="translate(-10.1 -203.655)" fill="#3f4445"/>
      <path id="Path_34" data-name="Path 34" d="M44.046,231.974l1.885-5.874h.482l-2.1,6.532h-.482l-2.192-5.874h0l-2.148,5.874H39L36.9,226.1h.438l1.929,5.83h0l2.1-5.83h.482L44,231.974Z" transform="translate(-25.151 -203.655)" fill="#3f4445"/>
      <path id="Path_35" data-name="Path 35" d="M70.746,231.974l1.885-5.874h.482l-2.1,6.532h-.482l-2.148-5.874h-.044l-2.148,5.874H65.7L63.6,226.1h.482l1.885,5.83h0l2.148-5.83H68.6Z" transform="translate(-40.147 -203.655)" fill="#3f4445"/>
      <rect id="Rectangle_7" data-name="Rectangle 7" width="0.482" height="1.096" transform="translate(35.246 27.881)" fill="#3f4445"/>
      <path id="Path_36" data-name="Path 36" d="M99.438,228.813H99V219.3h.438v3.989h.044a3.106,3.106,0,0,1,2.411-1.14c1.929,0,2.981,1.008,2.981,2.674v3.989h-.438v-3.989a2.186,2.186,0,0,0-2.5-2.28,2.643,2.643,0,0,0-2.411,1.4v4.866Z" transform="translate(-60.028 -199.836)" fill="#3f4445"/>
      <path id="Path_37" data-name="Path 37" d="M124.511,227.071a3.07,3.07,0,0,0-4.3,0,2.873,2.873,0,0,0-.833,2.148,3.052,3.052,0,0,0,.833,2.148,2.873,2.873,0,0,0,2.148.833,3.052,3.052,0,0,0,2.148-.833,3.186,3.186,0,0,0,0-4.3m-4.647,4.6a3.5,3.5,0,0,1,5-4.91,3.27,3.27,0,0,1,.964,2.455,3.3,3.3,0,0,1-3.463,3.419,3.55,3.55,0,0,1-2.5-.964" transform="translate(-71.204 -203.486)" fill="#3f4445"/>
      <path id="Path_38" data-name="Path 38" d="M142.038,232.52H141.6v-6.532h.438v1.052h.044a2.549,2.549,0,0,1,1.929-1.14,2.484,2.484,0,0,1,.7.088l-.132.395a2.1,2.1,0,0,0-1.885.351,1.771,1.771,0,0,0-.7.877v4.91Z" transform="translate(-83.953 -203.543)" fill="#3f4445"/>
      <path id="Path_39" data-name="Path 39" d="M157.259,226.333l-.307.307-.219-.175a2.838,2.838,0,0,0-1.49-.438c-1.1,0-1.885.526-1.885,1.271a1.2,1.2,0,0,0,.351.789,1.917,1.917,0,0,0,.438.263c.395.175.57.219,1.008.395a6.515,6.515,0,0,1,1.227.482,1.638,1.638,0,0,1,1.008,1.49c0,.964-.877,1.666-2.28,1.666a3.311,3.311,0,0,1-2.323-.877l-.088-.088.307-.307c.044.088.132.132.219.219a2.475,2.475,0,0,0,.7.351,3.293,3.293,0,0,0,1.14.219c1.1,0,1.8-.57,1.8-1.271a1.11,1.11,0,0,0-.395-.877,3.145,3.145,0,0,0-.482-.307c-.219-.088-.351-.175-.482-.219l-.57-.175-.789-.263c-.175-.088-.395-.175-.658-.307a1.346,1.346,0,0,1-.658-1.271,1.464,1.464,0,0,1,.658-1.227,2.877,2.877,0,0,1,1.666-.482,2.748,2.748,0,0,1,1.754.57Z" transform="translate(-90.187 -203.318)" fill="#3f4445"/>
      <path id="Path_40" data-name="Path 40" d="M170.647,226.84a2.55,2.55,0,0,0-.964,1.841h5.392a2.351,2.351,0,0,0-.57-1.8,2.409,2.409,0,0,0-1.885-.745,3.094,3.094,0,0,0-1.973.7m4.866,2.28h-5.874a2.753,2.753,0,0,0,.921,2.192,3.183,3.183,0,0,0,2.28.833,3.783,3.783,0,0,0,2.017-.614l.263-.219.307.307a1.907,1.907,0,0,1-.307.263,6.306,6.306,0,0,1-.877.395,3.741,3.741,0,0,1-1.359.263,3.68,3.68,0,0,1-2.63-.964,3.184,3.184,0,0,1-1.052-2.455,3.12,3.12,0,0,1,1.008-2.5,3.484,3.484,0,0,1,2.455-.921,2.88,2.88,0,0,1,2.148.789,2.677,2.677,0,0,1,.789,1.973Z" transform="translate(-99.454 -203.43)" fill="#3f4445"/>
      <path id="Path_41" data-name="Path 41" d="M193.615,226.333l-.307.307-.175-.175a2.838,2.838,0,0,0-1.491-.438c-1.1,0-1.885.526-1.885,1.271a1.2,1.2,0,0,0,.351.789,1.917,1.917,0,0,0,.438.263c.395.175.57.219,1.008.395a6.515,6.515,0,0,1,1.227.482,1.638,1.638,0,0,1,1.008,1.49c0,.964-.877,1.666-2.28,1.666a3.311,3.311,0,0,1-2.323-.877l-.088-.088.307-.307c.044.088.132.132.219.219a2.476,2.476,0,0,0,.7.351,3.293,3.293,0,0,0,1.14.219c1.1,0,1.8-.57,1.8-1.271a1.11,1.11,0,0,0-.395-.877,3.144,3.144,0,0,0-.482-.307c-.219-.088-.351-.175-.482-.219l-.57-.175-.833-.263c-.175-.088-.395-.175-.658-.307a1.382,1.382,0,0,1-.7-1.271,1.41,1.41,0,0,1,.7-1.227,2.877,2.877,0,0,1,1.666-.482,2.748,2.748,0,0,1,1.754.57Z" transform="translate(-110.63 -203.318)" fill="#3f4445"/>
      <path id="Path_42" data-name="Path 42" d="M210.78,230.91v-3.376a2.46,2.46,0,0,0-2.192-1.227,2.891,2.891,0,0,0-2.017.833,2.811,2.811,0,0,0-.833,2.06,2.841,2.841,0,0,0,.833,2.1,2.648,2.648,0,0,0,2.017.833,2.45,2.45,0,0,0,2.192-1.227m0-4.866h.438V232.4a2.544,2.544,0,0,1-.964,2.192,3.907,3.907,0,0,1-2.367.745,4.649,4.649,0,0,1-2.017-.438l.175-.395a4.375,4.375,0,0,0,1.841.438,2.545,2.545,0,0,0,2.893-2.5v-.833h-.044a2.66,2.66,0,0,1-2.192,1.052,3.112,3.112,0,0,1-2.323-.964,3.347,3.347,0,0,1-.921-2.367,3.2,3.2,0,0,1,.921-2.367,3.112,3.112,0,0,1,2.323-.964,2.719,2.719,0,0,1,2.192,1.052h.044Z" transform="translate(-119.728 -203.599)" fill="#3f4445"/>
      <path id="Path_43" data-name="Path 43" d="M230.441,231v-1.973a10.809,10.809,0,0,0-3.156.351c-.921.219-1.4.7-1.4,1.4a1.063,1.063,0,0,0,.614,1.052,3.056,3.056,0,0,0,1.447.307,3.64,3.64,0,0,0,2.5-1.14m1.227.964.088.395h-.219a.9.9,0,0,1-.964-.964h-.044a3.753,3.753,0,0,1-2.586,1.14,3.417,3.417,0,0,1-1.8-.438,1.51,1.51,0,0,1-.745-1.359,1.751,1.751,0,0,1,1.008-1.534,3.5,3.5,0,0,1,1.14-.351,14.159,14.159,0,0,1,2.893-.263v-.526a1.854,1.854,0,0,0-2.06-1.929,3.2,3.2,0,0,0-2.28.789l-.307-.307a3.6,3.6,0,0,1,2.543-.921,2.282,2.282,0,0,1,2.543,2.367v3.069c0,.57.263.833.658.833Z" transform="translate(-131.017 -203.43)" fill="#3f4445"/>
      <path id="Path_44" data-name="Path 44" d="M245.184,223.574H244v-.395h1.184V220.9h.438v2.28h1.359v.395h-1.359V228.4c.044.833.482.921.964.921a1.8,1.8,0,0,0,.482-.044l.088.395a2.7,2.7,0,0,1-.57.044,2.359,2.359,0,0,1-.964-.175c-.307-.175-.482-.526-.482-1.14v-4.822Z" transform="translate(-141.463 -200.735)" fill="#3f4445"/>
      <path id="Path_45" data-name="Path 45" d="M257.347,226.84a2.55,2.55,0,0,0-.964,1.841h5.392a2.351,2.351,0,0,0-.57-1.8,2.409,2.409,0,0,0-1.885-.745,3.185,3.185,0,0,0-1.973.7m4.866,2.28h-5.874a2.753,2.753,0,0,0,.921,2.192,3.183,3.183,0,0,0,2.28.833,3.783,3.783,0,0,0,2.017-.614l.263-.219.307.307a1.907,1.907,0,0,1-.307.263,6.306,6.306,0,0,1-.877.395,3.741,3.741,0,0,1-1.359.263,3.68,3.68,0,0,1-2.63-.964,3.184,3.184,0,0,1-1.052-2.455,3.12,3.12,0,0,1,1.008-2.5,3.484,3.484,0,0,1,2.455-.921,2.88,2.88,0,0,1,2.148.789,2.676,2.676,0,0,1,.789,1.973Z" transform="translate(-148.146 -203.43)" fill="#3f4445"/>
      <rect id="Rectangle_8" data-name="Rectangle 8" width="0.482" height="1.096" transform="translate(116.784 27.881)" fill="#3f4445"/>
      <path id="Path_46" data-name="Path 46" d="M289.324,227.1a2.331,2.331,0,0,0-2.1-.964,2.941,2.941,0,0,0-2.148.833,2.843,2.843,0,0,0-.833,2.192,2.977,2.977,0,0,0,.833,2.148,3.009,3.009,0,0,0,2.236.833,2.438,2.438,0,0,0,1.973-.877l.088-.088.351.263a2.653,2.653,0,0,1-.395.395,3.2,3.2,0,0,1-2.017.745,3.4,3.4,0,0,1-2.543-.964,3.3,3.3,0,0,1-.964-2.5,3.12,3.12,0,0,1,1.008-2.5,3.484,3.484,0,0,1,2.455-.921,2.83,2.83,0,0,1,2.455,1.14Z" transform="translate(-163.815 -203.43)" fill="#3f4445"/>
      <path id="Path_47" data-name="Path 47" d="M308.111,227.071a3.07,3.07,0,0,0-4.3,0,2.873,2.873,0,0,0-.833,2.148,3.052,3.052,0,0,0,.833,2.148,2.873,2.873,0,0,0,2.148.833,3.052,3.052,0,0,0,2.148-.833,2.873,2.873,0,0,0,.833-2.148,3.052,3.052,0,0,0-.833-2.148m-4.647,4.6a3.5,3.5,0,0,1,5-4.91,3.27,3.27,0,0,1,.964,2.455,3.3,3.3,0,0,1-3.463,3.419,3.475,3.475,0,0,1-2.5-.964" transform="translate(-174.318 -203.486)" fill="#3f4445"/>
      <path id="Path_48" data-name="Path 48" d="M325.538,232.351H325.1v-6.532h.438v.964h.044a2.4,2.4,0,0,1,1.973-1.14,2.157,2.157,0,0,1,2.28,1.315h.044a2.505,2.505,0,0,1,2.148-1.359,2.542,2.542,0,0,1,1.885.745,2.782,2.782,0,0,1,.658,1.929v3.989h-.438v-3.989a2.021,2.021,0,0,0-2.148-2.28,2.173,2.173,0,0,0-1.14.351,2.093,2.093,0,0,0-.789.964v5.041h-.438v-4.778c0-.877-.833-1.49-2.017-1.49a2.3,2.3,0,0,0-2.017,1.271v5Z" transform="translate(-187.01 -203.374)" fill="#3f4445"/>
      <g id="Group_10" data-name="Group 10" transform="translate(0.526)">
        <path id="Path_49" data-name="Path 49" d="M15.421,191.526H11.3V175.7h4.121v5.787H19.5V175.7h4.121v15.826H19.5v-6.357H15.421Z" transform="translate(-11.3 -175.349)" fill="#3f4445"/>
        <path id="Path_50" data-name="Path 50" d="M56.273,180.041a4.1,4.1,0,0,0-3.112-1.271,4,4,0,0,0-3.112,1.271,4.413,4.413,0,0,0-1.14,3.2,4.363,4.363,0,0,0,1.227,3.2,4.267,4.267,0,0,0,3.113,1.271,4.143,4.143,0,0,0,4.3-4.471,4.326,4.326,0,0,0-1.271-3.2m-9.162,9.031A7.8,7.8,0,0,1,44.7,183.2a7.967,7.967,0,0,1,2.411-5.874A8.3,8.3,0,0,1,53.161,175a8.512,8.512,0,0,1,6.093,2.323,7.8,7.8,0,0,1,2.411,5.874,7.966,7.966,0,0,1-2.411,5.874,8.331,8.331,0,0,1-6.093,2.323,8.3,8.3,0,0,1-6.05-2.323" transform="translate(-30.058 -174.956)" fill="#3f4445"/>
        <path id="Path_51" data-name="Path 51" d="M92.865,179.239v3.025H94.75c1.841,0,2.762-.482,2.762-1.534,0-1.008-.921-1.49-2.806-1.49Zm5.348,12.231-3.2-5.611H92.821v5.611H88.7V175.6h6.006c4.647,0,6.97,1.71,6.97,5.085a4.525,4.525,0,0,1-2.762,4.34l3.9,6.444Z" transform="translate(-54.769 -175.293)" fill="#3f4445"/>
        <path id="Path_52" data-name="Path 52" d="M130.824,179.747a3.881,3.881,0,0,0-2.367-.921c-.833,0-1.534.351-1.534,1.14,0,.7.438.964,1.71,1.359,3.069.964,4.559,2.586,4.559,4.954a4.7,4.7,0,0,1-1.622,3.9,6.075,6.075,0,0,1-3.989,1.315,7.532,7.532,0,0,1-5.48-2.236l2.236-2.718a5.7,5.7,0,0,0,3.244,1.271,1.38,1.38,0,0,0,1.49-1.49c0-.57-.57-1.052-1.71-1.4a8.965,8.965,0,0,1-3.507-1.71,4.2,4.2,0,0,1-1.052-3.2,4.425,4.425,0,0,1,.877-2.762A5.768,5.768,0,0,1,128.5,175.1a6.661,6.661,0,0,1,4.559,1.8Z" transform="translate(-73.528 -175.012)" fill="#3f4445"/>
        <path id="Path_53" data-name="Path 53" d="M156.977,187.887h6.006v3.639H152.9V175.7h9.82v3.639h-5.743v2.1h5.173v3.682h-5.173Z" transform="translate(-90.825 -175.349)" fill="#3f4445"/>
        <path id="Path_54" data-name="Path 54" d="M187.668,179.747a3.881,3.881,0,0,0-2.367-.921c-.833,0-1.534.351-1.534,1.14,0,.7.438.964,1.71,1.359,3.069.964,4.559,2.586,4.559,4.954a4.7,4.7,0,0,1-1.622,3.9,6.075,6.075,0,0,1-3.989,1.315,7.709,7.709,0,0,1-5.524-2.236l2.236-2.718a5.7,5.7,0,0,0,3.244,1.271,1.38,1.38,0,0,0,1.49-1.49c0-.57-.57-1.052-1.71-1.4a8.965,8.965,0,0,1-3.507-1.71,4.2,4.2,0,0,1-1.052-3.2,4.425,4.425,0,0,1,.877-2.762,5.8,5.8,0,0,1,4.866-2.148,6.661,6.661,0,0,1,4.559,1.8Z" transform="translate(-105.428 -175.012)" fill="#3f4445"/>
        <path id="Path_55" data-name="Path 55" d="M231.08,179.766a5.116,5.116,0,0,0-3.376-1.1,4.274,4.274,0,0,0-4.34,4.471,4.363,4.363,0,0,0,1.227,3.2,4.3,4.3,0,0,0,3.156,1.271,11.579,11.579,0,0,0,1.973-.132v-4.34h4.121v7.189a18.68,18.68,0,0,1-6.093.964,8.617,8.617,0,0,1-6.137-2.323A7.8,7.8,0,0,1,219.2,183.1a7.967,7.967,0,0,1,2.411-5.874,9.333,9.333,0,0,1,12.012-.263Z" transform="translate(-128.061 -174.9)" fill="#3f4445"/>
        <path id="Path_56" data-name="Path 56" d="M262.517,179.852h-.044l-1.534,5.348h3.112Zm-3.025,8.943-1.052,2.674H254.1l6.181-15.869h4.384l6.137,15.869h-4.34L265.41,188.8Z" transform="translate(-147.661 -175.293)" fill="#3f4445"/>
        <path id="Path_57" data-name="Path 57" d="M289.7,179.339V175.7h12.231v3.639h-4.077v12.187h-4.121V179.339Z" transform="translate(-167.655 -175.349)" fill="#3f4445"/>
        <path id="Path_58" data-name="Path 58" d="M326.521,187.887h6.006v3.639H322.4V175.7h9.82v3.639h-5.7v2.1h5.173v3.682h-5.173Z" transform="translate(-186.02 -175.349)" fill="#3f4445"/>
      </g>
    </g>
    <g id="Group_18" data-name="Group 18" transform="translate(168.136 19.4)">
      <g id="Group_13" data-name="Group 13">
        <path id="Path_59" data-name="Path 59" d="M431.14,98.045a.644.644,0,0,1,.614-.219.749.749,0,0,1,.57.307l5.962,7.409-1.227.964-5.436-6.751c-2.323,2.192-10.521,9.337-19.026,9.337H412.2l.044-1.578h.307c9.162.044,18.5-9.381,18.587-9.469M419.7,99.536c3.507-9.6.57-13.853-2.674-17.316-4.734-5.085-5.129-9.337-4.647-11.968a8.231,8.231,0,0,1,3.989-5.83l.658,1.4a6.833,6.833,0,0,0-3.113,4.735c-.438,2.323-.044,6.05,4.252,10.609,3.463,3.682,6.839,8.5,3.025,18.938Zm12.888-15.168c-1.447-5.567-.921-12.669,3.419-16.878l-1.929-6.839,1.491-.438,2.06,7.277a.737.737,0,0,1-.219.789c-4.34,3.9-4.691,11-3.112,16.352a.769.769,0,0,1-.482.964l-4.734,1.666a.556.556,0,0,1-.263.044.659.659,0,0,1-.482-.175l-3.419-2.63a.834.834,0,0,1-.307-.482l-.088-.395c-.833-5-.964-5.83-.263-8.636-1.622-.614-5.524-2.455-6.444-5.787-.614-2.28.307-4.778,2.718-7.365l1.14,1.052c-2.017,2.148-2.806,4.121-2.323,5.874.877,3.332,6.05,4.954,6.093,4.954a.775.775,0,0,1,.526.964c-.833,3.069-.745,3.376.132,8.68v.088l2.849,2.192Zm6.62-13.809c1.184-5.436.7-7.759-2.017-9.469l.833-1.315c3.77,2.411,3.814,5.874,2.718,11.135ZM399.708,55.7c7.365-6.225,17.185-7.146,26.215-2.455,7.014,3.639,10,3.156,11.179,2.543a2.294,2.294,0,0,0,1.227-1.929l1.578.175a3.917,3.917,0,0,1-2.06,3.156c-2.5,1.359-6.883.482-12.625-2.543-8.461-4.384-17.623-3.551-24.462,2.236-7.584,6.444-10.214,16.921-6.795,27.355l-1.49.482c-3.639-11.047-.877-22.182,7.233-29.021m-12.538,3.77A24.708,24.708,0,0,1,400.8,45.484c4.647-1.929,12.231-3.288,21.875,1.14l-.658,1.447c-7.233-3.332-14.335-3.682-20.6-1.1a23.409,23.409,0,0,0-12.757,13.108ZM370.995,69.9a6.156,6.156,0,0,0,2.674,1.1c2.586.395,5.874-.789,7.452-5.173a23.8,23.8,0,0,0,.745-4.735c.482-5,1.14-11.88,6.444-14.247l.658,1.447c-4.471,2.017-5.041,8.11-5.524,12.976a22.24,22.24,0,0,1-.833,5.085c-1.666,4.647-5.173,6.269-8.066,6.269a9.23,9.23,0,0,1-1.1-.088,7.888,7.888,0,0,1-2.543-.833c-.175,3.332-.307,7.014-.307,11.135a48.233,48.233,0,0,0,8.943-.658c8.329-1.4,8.154-4.822,7.891-9.118a14.562,14.562,0,0,1,.57-6.4l1.447.57a13.312,13.312,0,0,0-.438,5.743c.263,4.471.526,9.118-9.206,10.784a50.945,50.945,0,0,1-9.206.658c0,5.962.175,12.8.526,20.692,1.929,2.017,9.776,8.768,25.295,6.225,14.16-2.323,21.919-12.275,21.218-20.56-.57-6.576-6.313-10.653-15.08-10.653h-.175V78.537c11.661-.044,16.308,6.225,16.79,12.1.745,8.987-7.452,19.771-22.533,22.226a46.046,46.046,0,0,1-7.014.614c-9.82,0-15.694-3.726-18.412-6.093.132,3.156.351,6.444.526,9.951h.57c1.841-3.244,1.052-5.48,1.052-5.524l1.447-.57c.088.175.964,2.63-.7,6.093h33.361a10.1,10.1,0,0,0-3.77-2.367c-.526-.219-.833-.307-1.008-.614l1.315-.877a.756.756,0,0,1-.132-.175c.088.044.219.088.438.175a12.8,12.8,0,0,1,5.3,3.814h3.989a58.264,58.264,0,0,1-2.455-6.357l1.491-.438a59.735,59.735,0,0,0,2.674,6.795h30.248c.175-2.893.307-5.655.438-8.329a49.786,49.786,0,0,0-8.11-10.39l-.7-.7c-2.806-2.849-3.858-3.945-9.82-.745l-4.033,2.192-.745-1.359,4.033-2.192c6.707-3.595,8.5-2.236,11.661,1.008l.7.7a55.888,55.888,0,0,1,7.146,8.636C449.64,30.929,437.541,48.9,408.608,19.4c-22.84,23.322-35.2,16.965-37.613,50.5" transform="translate(-370.6 -19.4)" fill="#fff"/>
        <g id="Group_12" data-name="Group 12" clip-path="url(#clip-path)">
          <rect id="Rectangle_9" data-name="Rectangle 9" width="79.171" height="97.89" transform="translate(-0.044 0.044)" fill="#404041"/>
        </g>
      </g>
      <g id="Group_15" data-name="Group 15" transform="translate(48.134 12.318)">
        <path id="Path_61" data-name="Path 61" d="M480.444,47.544h0L480.4,47.5Z" transform="translate(-480.4 -47.5)" fill="#fff"/>
        <g id="Group_14" data-name="Group 14" clip-path="url(#clip-path-2)">
          <rect id="Rectangle_10" data-name="Rectangle 10" fill="#fff"/>
        </g>
      </g>
      <g id="Group_17" data-name="Group 17" transform="translate(69.176 32.002)" opacity="0.12">
        <path id="Path_63" data-name="Path 63" d="M528.4,93.1l.658.088.175-.044c-.044-.044-.044-.132-.088-.175l-.482.132.351-.482c-.044-.088-.044-.132-.088-.219Z" transform="translate(-528.4 -92.4)" fill="#fff" opacity="0.12"/>
        <g id="Group_16" data-name="Group 16" clip-path="url(#clip-path-3)">
          <rect id="Rectangle_11" data-name="Rectangle 11" width="0.833" height="0.789" fill="url(#linear-gradient)"/>
        </g>
      </g>
    </g>
  </g>
</svg>
